<?xml version="1.0" encoding="UTF-8" standalone="no" ?>
<!DOCTYPE svg PUBLIC "-//W3C//DTD SVG 1.1//EN" "http://www.w3.org/Graphics/SVG/1.1/DTD/svg11.dtd">
<svg xmlns="http://www.w3.org/2000/svg" xmlns:xlink="http://www.w3.org/1999/xlink" version="1.1" width="1080" height="1080" viewBox="0 0 1080 1080" xml:space="preserve">
<desc>Created with Fabric.js 5.2.4</desc>
<defs>
</defs>
<g transform="matrix(1 0 0 1 540 540)" id="2fb27e24-b9d0-4238-b7b8-b624f4a9c134"  >
<rect style="stroke: none; stroke-width: 1; stroke-dasharray: none; stroke-linecap: butt; stroke-dashoffset: 0; stroke-linejoin: miter; stroke-miterlimit: 4; fill: rgb(255,255,255); fill-rule: nonzero; opacity: 1; visibility: hidden;" vector-effect="non-scaling-stroke"  x="-540" y="-540" rx="0" ry="0" width="1080" height="1080" />
</g>
<g transform="matrix(1 0 0 1 540 540)" id="f19449c3-ea93-49dd-9da5-0d6504fff303"  >
</g>
<g transform="matrix(1 0 0 1 540 540)" id="f940fc72-d425-4972-927b-ff1396c6e900"  >
<path style="stroke: rgb(0,0,0); stroke-width: 0; stroke-dasharray: none; stroke-linecap: butt; stroke-dashoffset: 0; stroke-linejoin: miter; stroke-miterlimit: 4; fill: rgb(255,251,251); fill-rule: nonzero; opacity: 1;" vector-effect="non-scaling-stroke"  transform=" translate(-306, -306)" d="M 76.5 286.875 L 19.125 286.875 C 8.568 286.875 0 295.443 0 306 C 0 316.557 8.568 325.125 19.125 325.125 L 76.5 325.125 C 87.057 325.125 95.625 316.557 95.625 306 C 95.625 295.443 87.057 286.875 76.5 286.875 z M 306 95.625 C 316.557 95.625 325.125 87.057 325.125 76.5 L 325.125 19.125 C 325.125 8.568 316.557 0 306 0 C 295.443 0 286.875 8.568 286.875 19.125 L 286.875 76.5 C 286.875 87.057 295.443 95.625 306 95.625 z M 490.002 148.792 L 530.184 108.61 C 537.5849999999999 101.209 537.5849999999999 89.217 530.184 81.816 C 522.783 74.415 510.78999999999996 74.415 503.38899999999995 81.816 L 463.20699999999994 121.998 C 455.8059999999999 129.399 455.8059999999999 141.39100000000002 463.20699999999994 148.792 C 470.609 156.194 482.601 156.194 490.002 148.792 z M 141.716 443.509 L 101.534 483.69100000000003 C 94.13300000000001 491.09200000000004 94.13300000000001 503.08400000000006 101.534 510.485 C 108.935 517.886 120.927 517.886 128.328 510.485 L 168.51 470.303 C 175.911 462.902 175.911 450.90999999999997 168.51 443.509 C 161.10899999999998 436.10800000000006 149.118 436.107 141.716 443.509 z M 130.203 157.246 C 137.681 164.72400000000002 149.787 164.72400000000002 157.245 157.246 C 164.704 149.768 164.704 137.662 157.245 130.204 L 116.682 89.62 C 109.20400000000001 82.14200000000001 97.098 82.14200000000001 89.63900000000001 89.62 C 82.16100000000002 97.098 82.16100000000002 109.20400000000001 89.63900000000001 116.66300000000001 L 130.203 157.246 z M 306 516.375 C 295.443 516.375 286.875 524.943 286.875 535.5 L 286.875 592.875 C 286.875 603.432 295.443 612 306 612 C 316.557 612 325.125 603.432 325.125 592.875 L 325.125 535.5 C 325.125 524.943 316.557 516.375 306 516.375 z M 481.797 454.754 C 474.319 447.276 462.213 447.276 454.754 454.754 C 447.276 462.233 447.276 474.338 454.754 481.797 L 495.31800000000004 522.361 C 502.79600000000005 529.8389999999999 514.902 529.8389999999999 522.361 522.361 C 529.8199999999999 514.882 529.8389999999999 502.777 522.361 495.318 L 481.797 454.754 z M 592.875 286.875 L 535.5 286.875 C 524.943 286.875 516.375 295.443 516.375 306 C 516.375 316.557 524.943 325.125 535.5 325.125 L 592.875 325.125 C 603.432 325.125 612 316.557 612 306 C 612 295.443 603.432 286.875 592.875 286.875 z M 306 133.76 C 210.872 133.76 133.76 210.87199999999999 133.76 306 C 133.76 401.12800000000004 210.872 478.24 306 478.24 C 401.128 478.24 478.24 401.128 478.24 306 C 478.24 210.872 401.128 133.76 306 133.76 z M 306 439.837 C 232.082 439.837 172.163 379.918 172.163 306 C 172.163 232.082 232.082 172.163 306 172.163 C 379.918 172.163 439.837 232.082 439.837 306 C 439.837 379.918 379.918 439.837 306 439.837 z" stroke-linecap="round" />
</g>
</svg>